<svg xmlns="http://www.w3.org/2000/svg" viewBox="0 0 54.21 49.29"><g id="Layer_2" data-name="Layer 2"><g id="Layer_1-2" data-name="Layer 1"><path d="M33.33,41.49a.24.24,0,0,1-.06.09,3.34,3.34,0,0,1-.54.44,6.46,6.46,0,0,1-3,1.23,3.49,3.49,0,0,1-2.61-.72.33.33,0,0,0-.1-.06,3,3,0,0,1-.31.31,3.25,3.25,0,0,1-2.21.38,5.77,5.77,0,0,1-4-2c.22.16.45.35.68.5a6.44,6.44,0,0,0,2.95.8,3.2,3.2,0,0,0,2.24-.56,2.91,2.91,0,0,0,.65-2.17,4.6,4.6,0,0,1-1.87-.94,6.39,6.39,0,0,1-1.8-2.32,3.08,3.08,0,0,1-.29-1,1.4,1.4,0,0,1,.35-1c.71-.79,2.21-.93,3.21-1a9.78,9.78,0,0,1,2.7.24,2.46,2.46,0,0,1,1.57.92A1.65,1.65,0,0,1,31,36a7,7,0,0,1-1.84,2.73,3.66,3.66,0,0,1-1,.72,2.61,2.61,0,0,1-.67.21,1.58,1.58,0,0,0-.38.05,5.79,5.79,0,0,0,.63,2,2.6,2.6,0,0,0,1.41.73A5.71,5.71,0,0,0,33.33,41.49ZM50.22,15.68a10,10,0,0,1-1.17.62c.37.64.72,1.3,1,2a22,22,0,0,1,2,13.44,19.08,19.08,0,0,1-2.94,7.14,20.37,20.37,0,0,1-5.45,5.46,28.76,28.76,0,0,1-4.47,2.52,29.14,29.14,0,0,1-11.95,2.46,32.52,32.52,0,0,1-6.12-.58A25.33,25.33,0,0,1,4.86,38.54,18.23,18.23,0,0,1,2.2,32.61a16.15,16.15,0,0,1-.32-1.85,20.74,20.74,0,0,1,.18-6.67c0-.12,0-.24.08-.37a23.34,23.34,0,0,1,3.24-7.47l-.77-.32A8.53,8.53,0,0,1,.42,11.12a8.44,8.44,0,0,1,.42-6.3A8.64,8.64,0,0,1,5.59.54a8.45,8.45,0,0,1,6.65.29,8.22,8.22,0,0,1,3.68,3.58,10.65,10.65,0,0,1,.62,1.53l.06,0h0l1.65-.67a29.77,29.77,0,0,1,3.37-1,25.93,25.93,0,0,1,5.7-.63,25.33,25.33,0,0,1,10.35,2.2,9.89,9.89,0,0,1,.73-1.59A8.53,8.53,0,0,1,42.16.84,8.57,8.57,0,0,1,53.48,5.08a8.49,8.49,0,0,1,.21,6.38h0A8.66,8.66,0,0,1,50.22,15.68Zm-1.36,3.17a27.13,27.13,0,0,0-3.86-6A22.37,22.37,0,0,0,40.3,8.8a29.46,29.46,0,0,0-3-1.71l-.09,0-.08,0a23.77,23.77,0,0,0-9.79-2.09,24.42,24.42,0,0,0-5.4.6,26.15,26.15,0,0,0-3.18,1l-1.57.63c-.91.48-1.79.94-2.59,1.45a25.09,25.09,0,0,0-6.95,6.74A24.24,24.24,0,0,0,3.46,24c0,.12,0,.23-.07.35a19.43,19.43,0,0,0-.17,6.23c.09.63.16,1.18.29,1.71A16.9,16.9,0,0,0,6,37.78a23.9,23.9,0,0,0,15.42,9.6,31.35,31.35,0,0,0,5.86.56,27.82,27.82,0,0,0,11.4-2.35,28.09,28.09,0,0,0,4.25-2.4A18.58,18.58,0,0,0,48,38.09a17.69,17.69,0,0,0,2.74-6.63h0A20.61,20.61,0,0,0,48.86,18.85ZM19.69,27.31a1.74,1.74,0,0,1-3,.18A1.78,1.78,0,0,1,18,24.68h0A1.76,1.76,0,0,1,19.69,27.31Zm-1.22-1h0a.6.6,0,0,0,.79-.64.58.58,0,0,0-.75-.46h0A.58.58,0,0,0,18.47,26.3Zm3.84,2.23a15.07,15.07,0,0,1-1.9,2.53,14.84,14.84,0,0,1-3.72,3.17,7.17,7.17,0,0,1-1.6.65,5.09,5.09,0,0,1-.87.14,5.23,5.23,0,0,1-3.79-1.24,6.52,6.52,0,0,1-2.19-4.45,9,9,0,0,1,2.07-6.55,8.58,8.58,0,0,1,5.93-3,7.4,7.4,0,0,1,3.94.9A5.77,5.77,0,0,1,23,24.15h0A5.84,5.84,0,0,1,22.31,28.53Zm-5.66-5.16h0a2.88,2.88,0,0,0-1.47,5h0a3,3,0,0,0,4.09-.22A2.9,2.9,0,0,0,16.65,23.37Zm26.82-1.09a9.08,9.08,0,0,1,2.63,6.46A6.79,6.79,0,0,1,44,33.59a5.36,5.36,0,0,1-3.85,1.52,7,7,0,0,1-3.92-1.68,17.56,17.56,0,0,1-2.42-2.38c-1.24-1.44-2.52-3.11-2.74-5.05a5,5,0,0,1,1.09-3.7,7.17,7.17,0,0,1,5-2.55l.48,0h0A8.2,8.2,0,0,1,43.47,22.28Zm-6.62,1.09h0a2.88,2.88,0,0,0-1.74,5.06,3.14,3.14,0,0,0,4.08,0h0A2.92,2.92,0,0,0,36.85,23.37Zm.61,3.45a1.63,1.63,0,0,1-2.83.85,1.77,1.77,0,0,1,.73-2.92h0A1.77,1.77,0,0,1,37.46,26.82ZM35,25.2h0a.58.58,0,0,0-.08,1.11.59.59,0,0,0,.77-.46h0A.57.57,0,0,0,35,25.2Z"/></g></g></svg>